<?xml version="1.0" encoding="UTF-8" standalone="no"?>
<!DOCTYPE svg PUBLIC "-//W3C//DTD SVG 1.1//EN"
 "http://www.w3.org/Graphics/SVG/1.1/DTD/svg11.dtd">
<!-- Generated by graphviz version 12.2.1 (20241206.2353)
 -->
<!-- Pages: 1 -->
<svg width="3001pt" height="239pt"
 viewBox="0.00 0.00 3000.50 239.00" xmlns="http://www.w3.org/2000/svg" xmlns:xlink="http://www.w3.org/1999/xlink">
<g id="graph0" class="graph" transform="scale(1 1) rotate(0) translate(4 235)">
<polygon fill="white" stroke="none" points="-4,4 -4,-235 2996.5,-235 2996.5,4 -4,4"/>
<!-- 2788747793408 -->
<g id="node1" class="node">
<title>2788747793408</title>
<polygon fill="none" stroke="black" points="1752.75,-110.5 1752.75,-146.5 1938,-146.5 1938,-110.5 1752.75,-110.5"/>
<text text-anchor="middle" x="1762.62" y="-123.7" font-family="Times New Roman,serif" font-size="14.00"> </text>
<polyline fill="none" stroke="black" points="1772.5,-111 1772.5,-146.5"/>
<text text-anchor="middle" x="1812.38" y="-123.7" font-family="Times New Roman,serif" font-size="14.00">data 1.0000</text>
<polyline fill="none" stroke="black" points="1852.25,-111 1852.25,-146.5"/>
<text text-anchor="middle" x="1895.12" y="-123.7" font-family="Times New Roman,serif" font-size="14.00">grad &#45;0.1036</text>
</g>
<!-- 2788747793456+ -->
<g id="node3" class="node">
<title>2788747793456+</title>
<ellipse fill="none" stroke="black" cx="2001" cy="-100.5" rx="27" ry="18"/>
<text text-anchor="middle" x="2001" y="-95.45" font-family="Times New Roman,serif" font-size="14.00">+</text>
</g>
<!-- 2788747793408&#45;&gt;2788747793456+ -->
<g id="edge19" class="edge">
<title>2788747793408&#45;&gt;2788747793456+</title>
<path fill="none" stroke="black" d="M1938.4,-111.73C1947.14,-110.13 1955.61,-108.59 1963.33,-107.18"/>
<polygon fill="black" stroke="black" points="1963.7,-110.67 1972.91,-105.44 1962.44,-103.79 1963.7,-110.67"/>
</g>
<!-- 2788747793456 -->
<g id="node2" class="node">
<title>2788747793456</title>
<polygon fill="none" stroke="black" points="2064,-82.5 2064,-118.5 2249.25,-118.5 2249.25,-82.5 2064,-82.5"/>
<text text-anchor="middle" x="2073.88" y="-95.7" font-family="Times New Roman,serif" font-size="14.00"> </text>
<polyline fill="none" stroke="black" points="2083.75,-83 2083.75,-118.5"/>
<text text-anchor="middle" x="2123.62" y="-95.7" font-family="Times New Roman,serif" font-size="14.00">data 6.8284</text>
<polyline fill="none" stroke="black" points="2163.5,-83 2163.5,-118.5"/>
<text text-anchor="middle" x="2206.38" y="-95.7" font-family="Times New Roman,serif" font-size="14.00">grad &#45;0.1036</text>
</g>
<!-- 2788747793648**&#45;1 -->
<g id="node11" class="node">
<title>2788747793648**&#45;1</title>
<ellipse fill="none" stroke="black" cx="2375.62" cy="-100.5" rx="27.81" ry="18"/>
<text text-anchor="middle" x="2375.62" y="-95.45" font-family="Times New Roman,serif" font-size="14.00">**&#45;1</text>
</g>
<!-- 2788747793456&#45;&gt;2788747793648**&#45;1 -->
<g id="edge11" class="edge">
<title>2788747793456&#45;&gt;2788747793648**&#45;1</title>
<path fill="none" stroke="black" d="M2249.65,-100.5C2279.89,-100.5 2311.88,-100.5 2335.92,-100.5"/>
<polygon fill="black" stroke="black" points="2335.87,-104 2345.87,-100.5 2335.87,-97 2335.87,-104"/>
</g>
<!-- 2788747793456+&#45;&gt;2788747793456 -->
<g id="edge1" class="edge">
<title>2788747793456+&#45;&gt;2788747793456</title>
<path fill="none" stroke="black" d="M2028.41,-100.5C2035.45,-100.5 2043.5,-100.5 2052.05,-100.5"/>
<polygon fill="black" stroke="black" points="2052.04,-104 2062.04,-100.5 2052.04,-97 2052.04,-104"/>
</g>
<!-- 2788747792976 -->
<g id="node4" class="node">
<title>2788747792976</title>
<polygon fill="none" stroke="black" points="1753.88,-55.5 1753.88,-91.5 1936.88,-91.5 1936.88,-55.5 1753.88,-55.5"/>
<text text-anchor="middle" x="1764.88" y="-68.7" font-family="Times New Roman,serif" font-size="14.00">e</text>
<polyline fill="none" stroke="black" points="1775.88,-56 1775.88,-91.5"/>
<text text-anchor="middle" x="1815.75" y="-68.7" font-family="Times New Roman,serif" font-size="14.00">data 5.8284</text>
<polyline fill="none" stroke="black" points="1855.62,-56 1855.62,-91.5"/>
<text text-anchor="middle" x="1896.25" y="-68.7" font-family="Times New Roman,serif" font-size="14.00">grad 0.0429</text>
</g>
<!-- 2788747792976&#45;&gt;2788747793456+ -->
<g id="edge24" class="edge">
<title>2788747792976&#45;&gt;2788747793456+</title>
<path fill="none" stroke="black" d="M1937.07,-89.44C1946.24,-91.05 1955.13,-92.61 1963.2,-94.03"/>
<polygon fill="black" stroke="black" points="1962.44,-97.45 1972.89,-95.74 1963.65,-90.56 1962.44,-97.45"/>
</g>
<!-- 2788747793216+ -->
<g id="node17" class="node">
<title>2788747793216+</title>
<ellipse fill="none" stroke="black" cx="2001" cy="-45.5" rx="27" ry="18"/>
<text text-anchor="middle" x="2001" y="-40.45" font-family="Times New Roman,serif" font-size="14.00">+</text>
</g>
<!-- 2788747792976&#45;&gt;2788747793216+ -->
<g id="edge13" class="edge">
<title>2788747792976&#45;&gt;2788747793216+</title>
<path fill="none" stroke="black" d="M1937.07,-56.97C1946.32,-55.28 1955.3,-53.65 1963.44,-52.16"/>
<polygon fill="black" stroke="black" points="1963.99,-55.62 1973.2,-50.38 1962.73,-48.73 1963.99,-55.62"/>
</g>
<!-- 2788747792976exp -->
<g id="node5" class="node">
<title>2788747792976exp</title>
<ellipse fill="none" stroke="black" cx="1689.75" cy="-73.5" rx="27" ry="18"/>
<text text-anchor="middle" x="1689.75" y="-68.45" font-family="Times New Roman,serif" font-size="14.00">exp</text>
</g>
<!-- 2788747792976exp&#45;&gt;2788747792976 -->
<g id="edge2" class="edge">
<title>2788747792976exp&#45;&gt;2788747792976</title>
<path fill="none" stroke="black" d="M1717.16,-73.5C1724.6,-73.5 1733.17,-73.5 1742.27,-73.5"/>
<polygon fill="black" stroke="black" points="1742.09,-77 1752.09,-73.5 1742.09,-70 1742.09,-77"/>
</g>
<!-- 2788211655776 -->
<g id="node6" class="node">
<title>2788211655776</title>
<polygon fill="none" stroke="black" points="324,-139.5 324,-175.5 535.5,-175.5 535.5,-139.5 324,-139.5"/>
<text text-anchor="middle" x="347" y="-152.7" font-family="Times New Roman,serif" font-size="14.00">x1w1</text>
<polyline fill="none" stroke="black" points="370,-140 370,-175.5"/>
<text text-anchor="middle" x="412.12" y="-152.7" font-family="Times New Roman,serif" font-size="14.00">data &#45;6.0000</text>
<polyline fill="none" stroke="black" points="454.25,-140 454.25,-175.5"/>
<text text-anchor="middle" x="494.88" y="-152.7" font-family="Times New Roman,serif" font-size="14.00">grad 0.5000</text>
</g>
<!-- 2788747722656+ -->
<g id="node23" class="node">
<title>2788747722656+</title>
<ellipse fill="none" stroke="black" cx="598.5" cy="-129.5" rx="27" ry="18"/>
<text text-anchor="middle" x="598.5" y="-124.45" font-family="Times New Roman,serif" font-size="14.00">+</text>
</g>
<!-- 2788211655776&#45;&gt;2788747722656+ -->
<g id="edge20" class="edge">
<title>2788211655776&#45;&gt;2788747722656+</title>
<path fill="none" stroke="black" d="M535.88,-139.85C544.59,-138.38 552.96,-136.98 560.56,-135.7"/>
<polygon fill="black" stroke="black" points="561.06,-139.17 570.34,-134.06 559.9,-132.26 561.06,-139.17"/>
</g>
<!-- 2788211655776* -->
<g id="node7" class="node">
<title>2788211655776*</title>
<ellipse fill="none" stroke="black" cx="261" cy="-157.5" rx="27" ry="18"/>
<text text-anchor="middle" x="261" y="-152.45" font-family="Times New Roman,serif" font-size="14.00">*</text>
</g>
<!-- 2788211655776*&#45;&gt;2788211655776 -->
<g id="edge3" class="edge">
<title>2788211655776*&#45;&gt;2788211655776</title>
<path fill="none" stroke="black" d="M288.42,-157.5C295.52,-157.5 303.68,-157.5 312.42,-157.5"/>
<polygon fill="black" stroke="black" points="312.24,-161 322.24,-157.5 312.24,-154 312.24,-161"/>
</g>
<!-- 2788747792544 -->
<g id="node8" class="node">
<title>2788747792544</title>
<polygon fill="none" stroke="black" points="1044.75,-83.5 1044.75,-119.5 1320,-119.5 1320,-83.5 1044.75,-83.5"/>
<text text-anchor="middle" x="1101.88" y="-96.7" font-family="Times New Roman,serif" font-size="14.00">x1w1 + x2w2 + b</text>
<polyline fill="none" stroke="black" points="1159,-84 1159,-119.5"/>
<text text-anchor="middle" x="1198.88" y="-96.7" font-family="Times New Roman,serif" font-size="14.00">data 0.8814</text>
<polyline fill="none" stroke="black" points="1238.75,-84 1238.75,-119.5"/>
<text text-anchor="middle" x="1279.38" y="-96.7" font-family="Times New Roman,serif" font-size="14.00">grad 0.5000</text>
</g>
<!-- 2788747792784* -->
<g id="node21" class="node">
<title>2788747792784*</title>
<ellipse fill="none" stroke="black" cx="1383" cy="-73.5" rx="27" ry="18"/>
<text text-anchor="middle" x="1383" y="-68.45" font-family="Times New Roman,serif" font-size="14.00">*</text>
</g>
<!-- 2788747792544&#45;&gt;2788747792784* -->
<g id="edge22" class="edge">
<title>2788747792544&#45;&gt;2788747792784*</title>
<path fill="none" stroke="black" d="M1314.48,-83.02C1325.35,-81.49 1335.65,-80.03 1344.79,-78.75"/>
<polygon fill="black" stroke="black" points="1345.16,-82.23 1354.57,-77.37 1344.18,-75.3 1345.16,-82.23"/>
</g>
<!-- 2788747792544+ -->
<g id="node9" class="node">
<title>2788747792544+</title>
<ellipse fill="none" stroke="black" cx="981.75" cy="-101.5" rx="27" ry="18"/>
<text text-anchor="middle" x="981.75" y="-96.45" font-family="Times New Roman,serif" font-size="14.00">+</text>
</g>
<!-- 2788747792544+&#45;&gt;2788747792544 -->
<g id="edge4" class="edge">
<title>2788747792544+&#45;&gt;2788747792544</title>
<path fill="none" stroke="black" d="M1009.13,-101.5C1016.25,-101.5 1024.5,-101.5 1033.44,-101.5"/>
<polygon fill="black" stroke="black" points="1033.15,-105 1043.15,-101.5 1033.15,-98 1033.15,-105"/>
</g>
<!-- 2788747793648 -->
<g id="node10" class="node">
<title>2788747793648</title>
<polygon fill="none" stroke="black" points="2502,-80.5 2502,-116.5 2682.75,-116.5 2682.75,-80.5 2502,-80.5"/>
<text text-anchor="middle" x="2511.88" y="-93.7" font-family="Times New Roman,serif" font-size="14.00"> </text>
<polyline fill="none" stroke="black" points="2521.75,-81 2521.75,-116.5"/>
<text text-anchor="middle" x="2561.62" y="-93.7" font-family="Times New Roman,serif" font-size="14.00">data 0.1464</text>
<polyline fill="none" stroke="black" points="2601.5,-81 2601.5,-116.5"/>
<text text-anchor="middle" x="2642.12" y="-93.7" font-family="Times New Roman,serif" font-size="14.00">grad 4.8284</text>
</g>
<!-- 2788747793840* -->
<g id="node25" class="node">
<title>2788747793840*</title>
<ellipse fill="none" stroke="black" cx="2745.75" cy="-72.5" rx="27" ry="18"/>
<text text-anchor="middle" x="2745.75" y="-67.45" font-family="Times New Roman,serif" font-size="14.00">*</text>
</g>
<!-- 2788747793648&#45;&gt;2788747793840* -->
<g id="edge18" class="edge">
<title>2788747793648&#45;&gt;2788747793840*</title>
<path fill="none" stroke="black" d="M2683.18,-83.08C2691.79,-81.6 2700.14,-80.16 2707.78,-78.85"/>
<polygon fill="black" stroke="black" points="2708.36,-82.3 2717.62,-77.16 2707.17,-75.4 2708.36,-82.3"/>
</g>
<!-- 2788747793648**&#45;1&#45;&gt;2788747793648 -->
<g id="edge5" class="edge">
<title>2788747793648**&#45;1&#45;&gt;2788747793648</title>
<path fill="none" stroke="black" d="M2403.82,-100.25C2425.93,-100.04 2458.58,-99.74 2490.47,-99.44"/>
<polygon fill="black" stroke="black" points="2490.21,-102.94 2500.18,-99.35 2490.15,-95.94 2490.21,-102.94"/>
</g>
<!-- 2788747793168 -->
<g id="node12" class="node">
<title>2788747793168</title>
<polygon fill="none" stroke="black" points="1752.75,-0.5 1752.75,-36.5 1938,-36.5 1938,-0.5 1752.75,-0.5"/>
<text text-anchor="middle" x="1762.62" y="-13.7" font-family="Times New Roman,serif" font-size="14.00"> </text>
<polyline fill="none" stroke="black" points="1772.5,-1 1772.5,-36.5"/>
<text text-anchor="middle" x="1814.62" y="-13.7" font-family="Times New Roman,serif" font-size="14.00">data &#45;1.0000</text>
<polyline fill="none" stroke="black" points="1856.75,-1 1856.75,-36.5"/>
<text text-anchor="middle" x="1897.38" y="-13.7" font-family="Times New Roman,serif" font-size="14.00">grad 0.1464</text>
</g>
<!-- 2788747793168&#45;&gt;2788747793216+ -->
<g id="edge14" class="edge">
<title>2788747793168&#45;&gt;2788747793216+</title>
<path fill="none" stroke="black" d="M1938.4,-34.67C1947.14,-36.21 1955.61,-37.7 1963.33,-39.05"/>
<polygon fill="black" stroke="black" points="1962.45,-42.45 1972.91,-40.74 1963.66,-35.56 1962.45,-42.45"/>
</g>
<!-- 2788211655968 -->
<g id="node13" class="node">
<title>2788211655968</title>
<polygon fill="none" stroke="black" points="326.25,-84.5 326.25,-120.5 533.25,-120.5 533.25,-84.5 326.25,-84.5"/>
<text text-anchor="middle" x="349.25" y="-97.7" font-family="Times New Roman,serif" font-size="14.00">x2w2</text>
<polyline fill="none" stroke="black" points="372.25,-85 372.25,-120.5"/>
<text text-anchor="middle" x="412.12" y="-97.7" font-family="Times New Roman,serif" font-size="14.00">data 0.0000</text>
<polyline fill="none" stroke="black" points="452,-85 452,-120.5"/>
<text text-anchor="middle" x="492.62" y="-97.7" font-family="Times New Roman,serif" font-size="14.00">grad 0.5000</text>
</g>
<!-- 2788211655968&#45;&gt;2788747722656+ -->
<g id="edge23" class="edge">
<title>2788211655968&#45;&gt;2788747722656+</title>
<path fill="none" stroke="black" d="M533.51,-119.14C543.16,-120.7 552.45,-122.21 560.82,-123.56"/>
<polygon fill="black" stroke="black" points="560.05,-126.98 570.48,-125.12 561.16,-120.07 560.05,-126.98"/>
</g>
<!-- 2788211655968* -->
<g id="node14" class="node">
<title>2788211655968*</title>
<ellipse fill="none" stroke="black" cx="261" cy="-102.5" rx="27" ry="18"/>
<text text-anchor="middle" x="261" y="-97.45" font-family="Times New Roman,serif" font-size="14.00">*</text>
</g>
<!-- 2788211655968*&#45;&gt;2788211655968 -->
<g id="edge6" class="edge">
<title>2788211655968*&#45;&gt;2788211655968</title>
<path fill="none" stroke="black" d="M288.42,-102.5C296.08,-102.5 304.96,-102.5 314.47,-102.5"/>
<polygon fill="black" stroke="black" points="314.37,-106 324.37,-102.5 314.37,-99 314.37,-106"/>
</g>
<!-- 2788203913120 -->
<g id="node15" class="node">
<title>2788203913120</title>
<polygon fill="none" stroke="black" points="0,-194.5 0,-230.5 198,-230.5 198,-194.5 0,-194.5"/>
<text text-anchor="middle" x="16.25" y="-207.7" font-family="Times New Roman,serif" font-size="14.00">w1</text>
<polyline fill="none" stroke="black" points="32.5,-195 32.5,-230.5"/>
<text text-anchor="middle" x="74.62" y="-207.7" font-family="Times New Roman,serif" font-size="14.00">data &#45;3.0000</text>
<polyline fill="none" stroke="black" points="116.75,-195 116.75,-230.5"/>
<text text-anchor="middle" x="157.38" y="-207.7" font-family="Times New Roman,serif" font-size="14.00">grad 1.0000</text>
</g>
<!-- 2788203913120&#45;&gt;2788211655776* -->
<g id="edge12" class="edge">
<title>2788203913120&#45;&gt;2788211655776*</title>
<path fill="none" stroke="black" d="M172.12,-194.01C180.9,-191.35 189.7,-188.5 198,-185.5 208.09,-181.86 218.82,-177.27 228.47,-172.88"/>
<polygon fill="black" stroke="black" points="229.86,-176.09 237.45,-168.69 226.9,-169.75 229.86,-176.09"/>
</g>
<!-- 2788747793216 -->
<g id="node16" class="node">
<title>2788747793216</title>
<polygon fill="none" stroke="black" points="2285.25,-27.5 2285.25,-63.5 2466,-63.5 2466,-27.5 2285.25,-27.5"/>
<text text-anchor="middle" x="2295.12" y="-40.7" font-family="Times New Roman,serif" font-size="14.00"> </text>
<polyline fill="none" stroke="black" points="2305,-28 2305,-63.5"/>
<text text-anchor="middle" x="2344.88" y="-40.7" font-family="Times New Roman,serif" font-size="14.00">data 4.8284</text>
<polyline fill="none" stroke="black" points="2384.75,-28 2384.75,-63.5"/>
<text text-anchor="middle" x="2425.38" y="-40.7" font-family="Times New Roman,serif" font-size="14.00">grad 0.1464</text>
</g>
<!-- 2788747793216&#45;&gt;2788747793840* -->
<g id="edge15" class="edge">
<title>2788747793216&#45;&gt;2788747793840*</title>
<path fill="none" stroke="black" d="M2466.21,-52.07C2543.5,-57.74 2651.28,-65.64 2707.42,-69.76"/>
<polygon fill="black" stroke="black" points="2706.84,-73.23 2717.07,-70.47 2707.35,-66.25 2706.84,-73.23"/>
</g>
<!-- 2788747793216+&#45;&gt;2788747793216 -->
<g id="edge7" class="edge">
<title>2788747793216+&#45;&gt;2788747793216</title>
<path fill="none" stroke="black" d="M2028.5,-45.5C2078.76,-45.5 2190.32,-45.5 2273.28,-45.5"/>
<polygon fill="black" stroke="black" points="2273.27,-49 2283.27,-45.5 2273.27,-42 2273.27,-49"/>
</g>
<!-- 2788203912112 -->
<g id="node18" class="node">
<title>2788203912112</title>
<polygon fill="none" stroke="black" points="2.25,-84.5 2.25,-120.5 195.75,-120.5 195.75,-84.5 2.25,-84.5"/>
<text text-anchor="middle" x="18.5" y="-97.7" font-family="Times New Roman,serif" font-size="14.00">w2</text>
<polyline fill="none" stroke="black" points="34.75,-85 34.75,-120.5"/>
<text text-anchor="middle" x="74.62" y="-97.7" font-family="Times New Roman,serif" font-size="14.00">data 1.0000</text>
<polyline fill="none" stroke="black" points="114.5,-85 114.5,-120.5"/>
<text text-anchor="middle" x="155.12" y="-97.7" font-family="Times New Roman,serif" font-size="14.00">grad 0.0000</text>
</g>
<!-- 2788203912112&#45;&gt;2788211655968* -->
<g id="edge21" class="edge">
<title>2788203912112&#45;&gt;2788211655968*</title>
<path fill="none" stroke="black" d="M195.84,-102.5C205.14,-102.5 214.15,-102.5 222.32,-102.5"/>
<polygon fill="black" stroke="black" points="222.13,-106 232.13,-102.5 222.13,-99 222.13,-106"/>
</g>
<!-- 2788747792736 -->
<g id="node19" class="node">
<title>2788747792736</title>
<polygon fill="none" stroke="black" points="1092,-28.5 1092,-64.5 1272.75,-64.5 1272.75,-28.5 1092,-28.5"/>
<text text-anchor="middle" x="1101.88" y="-41.7" font-family="Times New Roman,serif" font-size="14.00"> </text>
<polyline fill="none" stroke="black" points="1111.75,-29 1111.75,-64.5"/>
<text text-anchor="middle" x="1151.62" y="-41.7" font-family="Times New Roman,serif" font-size="14.00">data 2.0000</text>
<polyline fill="none" stroke="black" points="1191.5,-29 1191.5,-64.5"/>
<text text-anchor="middle" x="1232.12" y="-41.7" font-family="Times New Roman,serif" font-size="14.00">grad 0.2203</text>
</g>
<!-- 2788747792736&#45;&gt;2788747792784* -->
<g id="edge25" class="edge">
<title>2788747792736&#45;&gt;2788747792784*</title>
<path fill="none" stroke="black" d="M1273.1,-58.7C1298.37,-62.13 1324.47,-65.68 1344.78,-68.44"/>
<polygon fill="black" stroke="black" points="1344.14,-71.89 1354.52,-69.76 1345.09,-64.95 1344.14,-71.89"/>
</g>
<!-- 2788747792784 -->
<g id="node20" class="node">
<title>2788747792784</title>
<polygon fill="none" stroke="black" points="1446,-55.5 1446,-91.5 1626.75,-91.5 1626.75,-55.5 1446,-55.5"/>
<text text-anchor="middle" x="1455.88" y="-68.7" font-family="Times New Roman,serif" font-size="14.00"> </text>
<polyline fill="none" stroke="black" points="1465.75,-56 1465.75,-91.5"/>
<text text-anchor="middle" x="1505.62" y="-68.7" font-family="Times New Roman,serif" font-size="14.00">data 1.7627</text>
<polyline fill="none" stroke="black" points="1545.5,-56 1545.5,-91.5"/>
<text text-anchor="middle" x="1586.12" y="-68.7" font-family="Times New Roman,serif" font-size="14.00">grad 0.2500</text>
</g>
<!-- 2788747792784&#45;&gt;2788747792976exp -->
<g id="edge27" class="edge">
<title>2788747792784&#45;&gt;2788747792976exp</title>
<path fill="none" stroke="black" d="M1627.18,-73.5C1635.52,-73.5 1643.62,-73.5 1651.06,-73.5"/>
<polygon fill="black" stroke="black" points="1651,-77 1661,-73.5 1651,-70 1651,-77"/>
</g>
<!-- 2788747792784*&#45;&gt;2788747792784 -->
<g id="edge8" class="edge">
<title>2788747792784*&#45;&gt;2788747792784</title>
<path fill="none" stroke="black" d="M1410.37,-73.5C1417.51,-73.5 1425.7,-73.5 1434.39,-73.5"/>
<polygon fill="black" stroke="black" points="1434.11,-77 1444.11,-73.5 1434.11,-70 1434.11,-77"/>
</g>
<!-- 2788747722656 -->
<g id="node22" class="node">
<title>2788747722656</title>
<polygon fill="none" stroke="black" points="661.5,-111.5 661.5,-147.5 918.75,-147.5 918.75,-111.5 661.5,-111.5"/>
<text text-anchor="middle" x="707.38" y="-124.7" font-family="Times New Roman,serif" font-size="14.00">x1w1 + x2w2</text>
<polyline fill="none" stroke="black" points="753.25,-112 753.25,-147.5"/>
<text text-anchor="middle" x="795.38" y="-124.7" font-family="Times New Roman,serif" font-size="14.00">data &#45;6.0000</text>
<polyline fill="none" stroke="black" points="837.5,-112 837.5,-147.5"/>
<text text-anchor="middle" x="878.12" y="-124.7" font-family="Times New Roman,serif" font-size="14.00">grad 0.5000</text>
</g>
<!-- 2788747722656&#45;&gt;2788747792544+ -->
<g id="edge16" class="edge">
<title>2788747722656&#45;&gt;2788747792544+</title>
<path fill="none" stroke="black" d="M916.29,-111.02C926.15,-109.56 935.53,-108.18 943.92,-106.94"/>
<polygon fill="black" stroke="black" points="944.19,-110.44 953.58,-105.51 943.17,-103.51 944.19,-110.44"/>
</g>
<!-- 2788747722656+&#45;&gt;2788747722656 -->
<g id="edge9" class="edge">
<title>2788747722656+&#45;&gt;2788747722656</title>
<path fill="none" stroke="black" d="M625.87,-129.5C632.88,-129.5 640.96,-129.5 649.7,-129.5"/>
<polygon fill="black" stroke="black" points="649.57,-133 659.57,-129.5 649.57,-126 649.57,-133"/>
</g>
<!-- 2788747793840 -->
<g id="node24" class="node">
<title>2788747793840</title>
<polygon fill="none" stroke="black" points="2808.75,-54.5 2808.75,-90.5 2992.5,-90.5 2992.5,-54.5 2808.75,-54.5"/>
<text text-anchor="middle" x="2820.12" y="-67.7" font-family="Times New Roman,serif" font-size="14.00">o</text>
<polyline fill="none" stroke="black" points="2831.5,-55 2831.5,-90.5"/>
<text text-anchor="middle" x="2871.38" y="-67.7" font-family="Times New Roman,serif" font-size="14.00">data 0.7071</text>
<polyline fill="none" stroke="black" points="2911.25,-55 2911.25,-90.5"/>
<text text-anchor="middle" x="2951.88" y="-67.7" font-family="Times New Roman,serif" font-size="14.00">grad 1.0000</text>
</g>
<!-- 2788747793840*&#45;&gt;2788747793840 -->
<g id="edge10" class="edge">
<title>2788747793840*&#45;&gt;2788747793840</title>
<path fill="none" stroke="black" d="M2773.03,-72.5C2780.17,-72.5 2788.36,-72.5 2797.07,-72.5"/>
<polygon fill="black" stroke="black" points="2796.81,-76 2806.81,-72.5 2796.81,-69 2796.81,-76"/>
</g>
<!-- 2788203913168 -->
<g id="node26" class="node">
<title>2788203913168</title>
<polygon fill="none" stroke="black" points="3.75,-29.5 3.75,-65.5 194.25,-65.5 194.25,-29.5 3.75,-29.5"/>
<text text-anchor="middle" x="18.5" y="-42.7" font-family="Times New Roman,serif" font-size="14.00">x2</text>
<polyline fill="none" stroke="black" points="33.25,-30 33.25,-65.5"/>
<text text-anchor="middle" x="73.12" y="-42.7" font-family="Times New Roman,serif" font-size="14.00">data 0.0000</text>
<polyline fill="none" stroke="black" points="113,-30 113,-65.5"/>
<text text-anchor="middle" x="153.62" y="-42.7" font-family="Times New Roman,serif" font-size="14.00">grad 0.5000</text>
</g>
<!-- 2788203913168&#45;&gt;2788211655968* -->
<g id="edge17" class="edge">
<title>2788203913168&#45;&gt;2788211655968*</title>
<path fill="none" stroke="black" d="M168.91,-65.94C178.74,-68.93 188.67,-72.15 198,-75.5 207.96,-79.07 218.58,-83.47 228.18,-87.68"/>
<polygon fill="black" stroke="black" points="226.54,-90.78 237.1,-91.67 229.4,-84.39 226.54,-90.78"/>
</g>
<!-- 2788203877856 -->
<g id="node27" class="node">
<title>2788203877856</title>
<polygon fill="none" stroke="black" points="1.5,-139.5 1.5,-175.5 196.5,-175.5 196.5,-139.5 1.5,-139.5"/>
<text text-anchor="middle" x="16.25" y="-152.7" font-family="Times New Roman,serif" font-size="14.00">x1</text>
<polyline fill="none" stroke="black" points="31,-140 31,-175.5"/>
<text text-anchor="middle" x="70.88" y="-152.7" font-family="Times New Roman,serif" font-size="14.00">data 2.0000</text>
<polyline fill="none" stroke="black" points="110.75,-140 110.75,-175.5"/>
<text text-anchor="middle" x="153.62" y="-152.7" font-family="Times New Roman,serif" font-size="14.00">grad &#45;1.5000</text>
</g>
<!-- 2788203877856&#45;&gt;2788211655776* -->
<g id="edge28" class="edge">
<title>2788203877856&#45;&gt;2788211655776*</title>
<path fill="none" stroke="black" d="M196.76,-157.5C205.77,-157.5 214.47,-157.5 222.4,-157.5"/>
<polygon fill="black" stroke="black" points="222.25,-161 232.25,-157.5 222.25,-154 222.25,-161"/>
</g>
<!-- 2788203912688 -->
<g id="node28" class="node">
<title>2788203912688</title>
<polygon fill="none" stroke="black" points="698.25,-56.5 698.25,-92.5 882,-92.5 882,-56.5 698.25,-56.5"/>
<text text-anchor="middle" x="709.62" y="-69.7" font-family="Times New Roman,serif" font-size="14.00">b</text>
<polyline fill="none" stroke="black" points="721,-57 721,-92.5"/>
<text text-anchor="middle" x="760.88" y="-69.7" font-family="Times New Roman,serif" font-size="14.00">data 6.8814</text>
<polyline fill="none" stroke="black" points="800.75,-57 800.75,-92.5"/>
<text text-anchor="middle" x="841.38" y="-69.7" font-family="Times New Roman,serif" font-size="14.00">grad 0.5000</text>
</g>
<!-- 2788203912688&#45;&gt;2788747792544+ -->
<g id="edge26" class="edge">
<title>2788203912688&#45;&gt;2788747792544+</title>
<path fill="none" stroke="black" d="M882.33,-87.49C904.17,-90.6 926.27,-93.74 943.98,-96.26"/>
<polygon fill="black" stroke="black" points="943.32,-99.71 953.71,-97.65 944.3,-92.78 943.32,-99.71"/>
</g>
</g>
</svg>
